<svg xmlns="http://www.w3.org/2000/svg" xmlns:xlink="http://www.w3.org/1999/xlink" viewBox="0 0 64 64"><path fill="#344a58" d="m8.7 60.57-4.3-2.34v-2.32l4.31 2.34z"/><path fill="#405464" d="m8.7 64-4.31-2.34.01-5.75 4.31 2.34z"/><path fill="#6d8faa" d="m8.71 58.25-.01 2.32 50.79-7.14v3.43L8.7 64z"/><path fill="#58748a" d="m8.71 58.25-.01 2.32 50.79-7.14-4.3-2.34-47.4 6.66z"/><path fill="#48667a" d="m53.35 51.98-4.31-2.35 6.15-.86 4.31 2.34zM14.86 57.38l-4.31-2.34 38.49-5.41 4.31 2.35z"/><path fill="#48667a" d="M8.71 58.25 4.4 55.91l6.15-.87 4.31 2.34z"/><path fill="#597f97" d="m59.5 51.11-.01 2.32L8.7 60.57l.01-2.32 6.15-.87 38.49-5.4z"/><path fill="#8d2c41" d="m58.56 26.03-4.31-2.34 1.58-1.91 4.31 2.34z"/><path fill="#702333" d="m56.39 28.67-4.3-2.34-3-2.47 4.3 2.34z"/><defs><path id="a" d="m44.79 47.7-4.31-2.34c-.24-3.05-.18-7.01-.66-8.23l4.31 2.34c.48 1.22.42 5.18.66 8.23z"/></defs><clipPath id="b"><use overflow="visible" xlink:href="#a"/></clipPath><g clip-path="url(#b)"><path fill="#777" d="m44.79 47.7-4.31-2.34c-.24-3.05-.18-7.01-.66-8.23l4.31 2.34c.48 1.22.42 5.18.66 8.23"/></g><defs><path id="c" d="M39.82 37.13c-.26-.74-.71-1.22-1.3-1.54l4.31 2.34c.58.32 1.04.8 1.3 1.54-1.29-.7-3.35-1.22-4.31-2.34z"/></defs><clipPath id="d"><use overflow="visible" xlink:href="#c"/></clipPath><g clip-path="url(#d)"><path fill="#777" d="m44.13 39.47-4.31-2.34c-.26-.74-.71-1.22-1.3-1.54l4.31 2.34c.59.32 1.04.8 1.3 1.54"/></g><path fill="#a2a2a2" d="m35.64 48.98-4.31-2.34.74-.1 4.31 2.34z"/><defs><path id="e" d="m38.53 35.59 4.31 2.34c-.43-.24-.93-.38-1.48-.47l-4.31-2.34c.54.09 1.05.23 1.48.47z"/></defs><clipPath id="f"><use overflow="visible" xlink:href="#e"/></clipPath><g clip-path="url(#f)"><path fill="#2d3c45" d="m41.36 37.46-4.31-2.34c.18.03.36.07.53.11l4.31 2.34c-.17-.04-.35-.08-.53-.11"/><path fill="#2c3a43" d="m41.89 37.57-4.31-2.34c.29.08.57.17.82.3l4.31 2.34c-.25-.13-.53-.22-.82-.3"/><path fill="#2a3841" d="m42.71 37.87-4.31-2.34.12.06 4.31 2.34-.12-.06"/></g><path fill="#a2a2a2" d="m31.85 49.52-4.3-2.35.74-.1 4.31 2.34z"/><path fill="#a2a2a2" d="m23.45 50.7-4.31-2.34 21.34-3 4.31 2.34z"/><defs><path id="g" d="M32.68 46.45c-.34-1.1-.45-2.38-.45-3.56 1.44.78 2.87 1.56 4.31 2.34 0 1.18.1 2.45.45 3.56-1.3-.7-3.38-1.2-4.31-2.34z"/></defs><clipPath id="h"><use overflow="visible" xlink:href="#g"/></clipPath><g clip-path="url(#h)"><path fill="#232f37" d="m36.99 48.8-4.31-2.34c-.34-1.1-.45-2.38-.45-3.56 0-1.25.13-2.39.22-3.07.04-.27.1-.54.2-.8l4.31 2.34c-.1.26-.16.53-.2.8-.09.68-.22 1.82-.22 3.07 0 1.17.1 2.45.45 3.56"/></g><defs><path id="i" d="M36.2 34.97c.26.04.53.1.85.14l4.31 2.34c-.32-.04-.59-.1-.85-.14-1.44-.77-2.87-1.55-4.31-2.34z"/></defs><clipPath id="j"><use overflow="visible" xlink:href="#i"/></clipPath><g clip-path="url(#j)"><path fill="#2d3c45" d="m40.5 37.32-4.31-2.34c.26.04.54.1.85.14l4.31 2.34c-.31-.05-.58-.1-.85-.14"/></g><defs><path id="k" d="M37.06 34.49c1.44.78 2.87 1.56 4.31 2.34-.02.01-.34.15-.86.49-1.44-.78-2.87-1.56-4.31-2.34.52-.34.84-.49.86-.49z"/></defs><clipPath id="l"><use overflow="visible" xlink:href="#k"/></clipPath><g clip-path="url(#l)"><path fill="#939393" d="m40.51 37.32-4.31-2.34c.44-.29.74-.44.83-.48l4.31 2.34c-.08.04-.39.19-.83.48"/><path fill="#979797" d="m41.34 36.84-4.31-2.34c.01-.01.02-.01.02-.01l4.31 2.34-.02.01"/></g><defs><path id="m" d="M36.18 34.98c1.44.78 2.87 1.56 4.31 2.34-.88.58-2.25 1.71-3.28 3.52-1.44-.78-2.87-1.56-4.31-2.34 1.03-1.81 2.4-2.93 3.28-3.52z"/></defs><clipPath id="n"><use overflow="visible" xlink:href="#m"/></clipPath><g clip-path="url(#n)"><path fill="#26333b" d="m37.17 40.91-4.31-2.34.03-.06c.16-.29.34-.56.51-.81l4.31 2.34a7.992 7.992 0 0 0-.54.87"/><path fill="#27353d" d="m37.72 40.03-4.31-2.34c.24-.34.48-.64.72-.92l4.31 2.34c-.24.28-.49.59-.72.92"/><path fill="#29373f" d="m38.44 39.12-4.31-2.34c.29-.33.58-.61.86-.86l4.31 2.34c-.28.24-.57.53-.86.86"/><path fill="#2a3841" d="m39.3 38.25-4.31-2.34c.37-.34.73-.61 1.04-.82l4.31 2.34c-.31.21-.67.48-1.04.82"/><path fill="#2c3a43" d="m40.34 37.43-4.31-2.34c.06-.04.11-.08.17-.11l4.31 2.34a.99.99 0 0 0-.17.11"/></g><defs><path id="o" d="M36.2 34.97c1.44.78 2.88 1.56 4.31 2.34-1.3-.7-3.02-1.63-4.31-2.34z"/></defs><clipPath id="p"><use overflow="visible" xlink:href="#o"/></clipPath><g clip-path="url(#p)"><path fill="#2d3c45" d="m40.5 37.32-4.31-2.34c.26.04.54.1.85.14l4.31 2.34c-.31-.05-.58-.1-.85-.14"/></g><defs><path id="q" d="M36.18 34.98c.01 0 .01-.01.02-.01l4.31 2.34c-.01 0-.01.01-.02.01-1.44-.77-2.87-1.55-4.31-2.34z"/></defs><clipPath id="r"><use overflow="visible" xlink:href="#q"/></clipPath><g clip-path="url(#r)"><path fill="#2c3a43" d="m40.34 37.43-4.31-2.34c.06-.04.11-.08.17-.11l4.31 2.34a.99.99 0 0 0-.17.11"/></g><defs><path id="s" d="M32.23 42.9c0-1.25.13-2.39.22-3.07 1.44.78 2.87 1.56 4.31 2.34-.09.68-.22 1.82-.22 3.07-1.44-.78-2.87-1.56-4.31-2.34z"/></defs><clipPath id="t"><use overflow="visible" xlink:href="#s"/></clipPath><g clip-path="url(#t)"><path fill="#232f37" d="m36.99 48.8-4.31-2.34c-.34-1.1-.45-2.38-.45-3.56 0-1.25.13-2.39.22-3.07.04-.27.1-.54.2-.8l4.31 2.34c-.1.26-.16.53-.2.8-.09.68-.22 1.82-.22 3.07 0 1.17.1 2.45.45 3.56"/></g><defs><path id="u" d="M32.46 39.83c.06-.46.21-.91.44-1.33 1.44.78 2.87 1.56 4.31 2.34a3.6 3.6 0 0 0-.44 1.33c-1.44-.78-2.88-1.56-4.31-2.34z"/></defs><clipPath id="v"><use overflow="visible" xlink:href="#u"/></clipPath><g clip-path="url(#v)"><path fill="#232f37" d="m36.99 48.8-4.31-2.34c-.34-1.1-.45-2.38-.45-3.56 0-1.25.13-2.39.22-3.07.04-.27.1-.54.2-.8l4.31 2.34c-.1.26-.16.53-.2.8-.09.68-.22 1.82-.22 3.07 0 1.17.1 2.45.45 3.56"/><path fill="#253139" d="m36.96 41.37-4.31-2.34c.06-.16.13-.31.21-.47l4.31 2.34c-.08.16-.15.31-.21.47"/><path fill="#26333b" d="m37.17 40.91-4.31-2.34.03-.06c.16-.29.34-.56.51-.81l4.31 2.34a7.992 7.992 0 0 0-.54.87"/></g><path fill="#3b4f5c" d="M40.5 37.32c.26.04.54.1.85.14 1.27.22 2.32.72 2.77 2.01.48 1.22.42 5.18.66 8.23l-7.8 1.1c-.34-1.1-.45-2.38-.45-3.56 0-1.25.13-2.39.22-3.07.06-.46.21-.91.44-1.33a10.6 10.6 0 0 1 3.31-3.52z"/><defs><path id="w" d="m35.64 48.98-4.31-2.34c-.67-3.42-.12-6.51-.09-6.67l4.31 2.34c-.03.17-.58 3.26.09 6.67z"/></defs><clipPath id="x"><use overflow="visible" xlink:href="#w"/></clipPath><g clip-path="url(#x)"><path fill="#364146" d="m35.64 48.98-4.31-2.34c-.67-3.42-.12-6.51-.09-6.67l4.31 2.34c-.03.17-.58 3.26.09 6.67"/></g><defs><path id="y" d="M37.06 34.49c-.54-.67-1.3-1.19-2.03-1.59l4.31 2.34c.73.4 1.48.92 2.03 1.59-1.3-.7-3.18-1.41-4.31-2.34z"/></defs><clipPath id="z"><use overflow="visible" xlink:href="#y"/></clipPath><g clip-path="url(#z)"><path fill="#777" d="m41.37 36.83-4.31-2.34c-.54-.67-1.3-1.19-2.03-1.59l4.31 2.34c.73.39 1.48.92 2.03 1.59"/></g><defs><path id="A" d="m35.55 42.32-4.31-2.34c0-.05.08-.93.86-2.47l4.31 2.34c-.78 1.54-.85 2.42-.86 2.47z"/></defs><clipPath id="B"><use overflow="visible" xlink:href="#A"/></clipPath><g clip-path="url(#B)"><path fill="#364146" d="m35.55 42.32-4.31-2.34c0-.03.04-.48.33-1.28l4.31 2.34c-.29.8-.32 1.24-.33 1.28"/><path fill="#384449" d="m35.89 41.04-4.31-2.34c.12-.34.29-.74.53-1.2l4.31 2.34c-.24.46-.41.86-.53 1.2"/></g><defs><path id="C" d="M29.82 38.79c.76-.11 1.53-.54 2.28-1.3l4.31 2.34c-.75.76-1.52 1.19-2.28 1.3-1.44-.77-2.87-1.56-4.31-2.34z"/></defs><clipPath id="D"><use overflow="visible" xlink:href="#C"/></clipPath><g clip-path="url(#D)"><path fill="#979797" d="m33.06 41.07-4.31-2.34c.36.09.71.11 1.07.06.3-.04.59-.13.89-.27l4.31 2.34c-.29.14-.59.23-.89.27-.36.06-.72.04-1.07-.06"/><path fill="#939393" d="m35.01 40.87-4.31-2.34c.19-.09.39-.21.58-.34l4.31 2.34c-.19.13-.38.24-.58.34"/><path fill="#8e8e8e" d="m35.6 40.53-4.31-2.34c.18-.13.36-.27.54-.43l4.31 2.34c-.18.16-.36.3-.54.43"/><path fill="#898989" d="m36.14 40.09-4.31-2.34c.09-.08.18-.17.27-.26l4.31 2.34c-.09.1-.18.18-.27.26"/></g><defs><path id="E" d="M36.41 39.84 32.1 37.5c.17-.34.37-.71.62-1.11.96-1.56-.06-3.24-.11-3.33l4.31 2.34c.05.09 1.08 1.78.11 3.33-.25.41-.44.77-.62 1.11z"/></defs><clipPath id="F"><use overflow="visible" xlink:href="#E"/></clipPath><g clip-path="url(#F)"><path fill="#384449" d="M36.41 39.84 32.1 37.5c.06-.11.12-.22.18-.34l4.31 2.34c-.06.12-.12.23-.18.34"/><path fill="#3a464c" d="m36.59 39.5-4.31-2.34c.13-.24.28-.5.45-.77l.09-.15 4.31 2.34-.09.15c-.17.28-.32.53-.45.77"/><path fill="#384449" d="m37.12 38.58-4.31-2.34c.06-.12.11-.23.16-.35l4.31 2.34c-.04.12-.1.24-.16.35"/><path fill="#364146" d="m37.28 38.23-4.31-2.34c.51-1.4-.31-2.75-.36-2.83l4.31 2.34c.05.08.87 1.44.36 2.83"/></g><defs><path id="G" d="m32.6 49.41-4.31-2.34c.67-3.61.13-6.54.1-6.69l4.31 2.34c.03.15.57 3.09-.1 6.69z"/></defs><clipPath id="H"><use overflow="visible" xlink:href="#G"/></clipPath><g clip-path="url(#H)"><path fill="#777" d="m32.6 49.41-4.31-2.34c.67-3.61.13-6.54.1-6.69l4.31 2.34c.03.15.57 3.09-.1 6.69"/></g><path fill="#354045" d="m36.92 35.4-4.31-2.34-.01-.98 4.31 2.34z"/><defs><path id="I" d="M32.6 32.08c.03-.05.05-.1.08-.15l4.31 2.34c-.02.05-.05.1-.08.15l-4.31-2.34z"/></defs><clipPath id="J"><use overflow="visible" xlink:href="#I"/></clipPath><g clip-path="url(#J)"><path fill="#384449" d="m36.91 34.42-4.31-2.34c.03-.05.05-.1.08-.15l4.31 2.34c-.03.05-.05.1-.08.15"/></g><defs><path id="K" d="M32.68 31.93c.27.08 1.29.39 2.35.96l4.31 2.34c-1.06-.58-2.08-.88-2.35-.96-1.3-.7-3.02-1.64-4.31-2.34z"/></defs><clipPath id="L"><use overflow="visible" xlink:href="#K"/></clipPath><g clip-path="url(#L)"><path fill="#435056" d="m36.99 34.27-4.31-2.34c.24.07 1.05.31 1.97.76l4.31 2.34c-.92-.44-1.73-.69-1.97-.76"/><path fill="#404e54" d="m38.95 35.04-4.31-2.34c.13.06.26.13.39.2l4.31 2.34c-.13-.07-.26-.14-.39-.2"/></g><path fill="#5b6d76" d="M36.99 34.27c.46.14 3.04.91 4.38 2.56-.02.01-.34.15-.86.49-.89.58-2.27 1.71-3.31 3.53a3.6 3.6 0 0 0-.44 1.33c-.09.68-.22 1.82-.22 3.07 0 1.18.1 2.45.45 3.56l-.61.09-.74.1c-.67-3.42-.12-6.51-.09-6.67 0-.05.08-.93.86-2.47.17-.34.37-.71.62-1.11.96-1.56-.06-3.24-.11-3.33l-.01-.98c.03-.07.05-.12.08-.17z"/><defs><path id="M" d="m36.99 34.27-4.31-2.34c.29-.59.39-.96.43-1.37l4.31 2.34c-.05.42-.14.78-.43 1.37z"/></defs><clipPath id="N"><use overflow="visible" xlink:href="#M"/></clipPath><g clip-path="url(#N)"><path fill="#7c7c7c" d="m36.99 34.27-4.31-2.34c.1-.21.18-.39.24-.55l4.31 2.34c-.06.16-.14.34-.24.55"/><path fill="#777" d="m37.23 33.72-4.31-2.34c.11-.3.16-.55.19-.82l4.31 2.34c-.03.27-.08.52-.19.82"/></g><defs><path id="O" d="m35.49 36.25-4.31-2.34c.67-.72 1.03-1.09 1.41-1.81l4.31 2.34c-.38.72-.74 1.09-1.41 1.81z"/></defs><clipPath id="P"><use overflow="visible" xlink:href="#O"/></clipPath><g clip-path="url(#P)"><path fill="#8b7c4f" d="m35.49 36.25-4.31-2.34c.23-.25.42-.45.59-.64l4.31 2.34c-.17.19-.36.39-.59.64"/><path fill="#86774c" d="m36.08 35.61-4.31-2.34c.17-.2.32-.38.46-.58l4.31 2.34c-.14.2-.29.38-.46.58"/><path fill="#817349" d="m36.54 35.03-4.31-2.34c.12-.17.23-.35.34-.56l4.31 2.34c-.11.21-.22.39-.34.56"/><path fill="#7d6f47" d="m36.88 34.47-4.31-2.34c.01-.01.01-.02.02-.03l4.31 2.34c-.01.01-.01.02-.02.03"/></g><path fill="#767676" d="m37.42 32.9-4.31-2.34.03-.46 4.3 2.34z"/><defs><path id="Q" d="M27.99 38.43c.61.33 1.22.45 1.83.37 1.44.78 2.87 1.56 4.31 2.34-.61.09-1.22-.04-1.83-.37-1.29-.7-3.01-1.64-4.31-2.34z"/></defs><clipPath id="R"><use overflow="visible" xlink:href="#Q"/></clipPath><g clip-path="url(#R)"><path fill="#8e8e8e" d="m32.3 40.77-4.31-2.34c.05.02.09.05.14.07l4.31 2.34c-.05-.02-.09-.05-.14-.07"/><path fill="#939393" d="m32.44 40.84-4.31-2.34c.21.1.41.18.62.23l4.31 2.34c-.21-.05-.42-.13-.62-.23"/><path fill="#979797" d="m33.06 41.07-4.31-2.34c.36.09.71.11 1.07.06.3-.04.59-.13.89-.27l4.31 2.34c-.29.14-.59.23-.89.27-.36.06-.72.04-1.07-.06"/></g><defs><path id="S" d="m34.14 36.99-4.31-2.34c.55-.11.91-.23 1.35-.74l4.31 2.34c-.44.5-.8.63-1.35.74z"/></defs><clipPath id="T"><use overflow="visible" xlink:href="#S"/></clipPath><g clip-path="url(#T)"><path fill="#988856" d="m34.14 36.99-4.31-2.34c.26-.05.47-.11.67-.2l4.31 2.34c-.2.09-.41.14-.67.2"/><path fill="#948454" d="m34.81 36.79-4.31-2.34c.08-.04.16-.09.24-.14l4.31 2.34c-.07.05-.15.1-.24.14"/><path fill="#8f8051" d="m35.06 36.65-4.31-2.34c.07-.05.13-.1.2-.16l4.31 2.34c-.07.06-.14.11-.2.16"/><path fill="#8b7c4f" d="m35.25 36.49-4.31-2.34c.07-.07.15-.14.22-.23l4.31 2.34c-.07.09-.14.16-.22.23"/><path fill="#86774c" d="m35.48 36.26-4.31-2.34.01-.01 4.31 2.34c-.01 0-.01.01-.01.01"/></g><defs><path id="U" d="M34.23 28.61c.18-.92.11-1.66-.33-1.91l4.31 2.34c.45.24.51.98.33 1.91-.16.76-.52 1.46-.91 1.51-.06.01-.12 0-.18-.03l-4.31-2.34c.06.03.12.03.18.03.38-.05.75-.75.91-1.51z"/></defs><clipPath id="V"><use overflow="visible" xlink:href="#U"/></clipPath><g clip-path="url(#V)"><path fill="#939393" d="m37.44 32.44-4.31-2.34c.02.01.03.01.05.02l4.31 2.34c-.01 0-.03-.01-.05-.02"/><path fill="#979797" d="m37.49 32.46-4.31-2.34c.04.01.09.01.13.01.04-.01.08-.02.12-.04l4.31 2.34c-.04.02-.08.03-.12.04-.04.01-.08 0-.13-.01"/><path fill="#939393" d="m37.74 32.43-4.31-2.34c.03-.01.05-.03.08-.05l4.31 2.34c-.03.03-.05.04-.08.05"/><path fill="#8e8e8e" d="m37.82 32.39-4.31-2.34c.03-.02.05-.04.07-.06l4.31 2.34c-.02.02-.04.04-.07.06"/><path fill="#898989" d="m37.89 32.33-4.31-2.34c.03-.02.05-.05.08-.08l4.31 2.34c-.02.03-.05.05-.08.08"/><path fill="#858585" d="m37.98 32.25-4.31-2.34c.03-.04.06-.08.1-.12l4.31 2.34c-.04.04-.07.08-.1.12"/><path fill="gray" d="m38.07 32.12-4.31-2.34c.04-.06.09-.13.12-.2l4.31 2.34c-.03.07-.08.14-.12.2"/><path fill="#7c7c7c" d="m38.2 31.92-4.31-2.34c.06-.12.12-.25.17-.39l4.31 2.34c-.05.14-.11.27-.17.39"/><path fill="#777" d="m38.37 31.53-4.31-2.34c.07-.18.12-.38.16-.57.18-.92.11-1.66-.33-1.91l4.31 2.34c.45.24.51.99.33 1.91-.04.19-.09.39-.16.57"/></g><defs><path id="W" d="M33.23 28.14c.03 0 .05-.03.08-.07l4.31 2.34c-.03.05-.05.07-.08.07-1.43-.77-2.87-1.55-4.31-2.34z"/></defs><clipPath id="X"><use overflow="visible" xlink:href="#W"/></clipPath><g clip-path="url(#X)"><path fill="#a68f57" d="m37.52 30.49-4.31-2.34h.04l4.31 2.34h-.04"/><path fill="#a18b54" d="m37.56 30.48-4.31-2.34.01-.01 4.31 2.35h-.01"/><path fill="#9c8752" d="m37.57 30.48-4.31-2.35h.01l4.31 2.34-.01.01"/><path fill="#97824f" d="m37.58 30.47-4.31-2.34.01-.01 4.31 2.34-.01.01"/><path fill="#927e4d" d="m37.59 30.46-4.31-2.34s.01-.01.01-.02l4.31 2.34c0 .01-.01.01-.01.02"/><path fill="#8d7a4a" d="m37.6 30.44-4.31-2.34c.01-.01.01-.02.02-.03l4.31 2.34c-.01.02-.01.02-.02.03"/><path fill="#887547" d="m37.62 30.41-4.31-2.34 4.31 2.34"/></g><defs><path id="Y" d="M33.2 28.14c.01.01.02.01.03.01 1.44.78 2.87 1.56 4.31 2.34-.01 0-.02 0-.03-.01l-4.31-2.34z"/></defs><clipPath id="Z"><use overflow="visible" xlink:href="#Y"/></clipPath><g clip-path="url(#Z)"><path fill="#9c8752" d="m37.51 30.48-4.31-2.34 4.31 2.34"/><path fill="#a18b54" d="m37.51 30.48-4.31-2.34h.02l4.3 2.35-.01-.01"/><path fill="#a68f57" d="m37.52 30.49-4.31-2.34h.04l4.31 2.34h-.04"/></g><path fill="#7e6d42" d="m37.43 32.44-4.3-2.34-.56-.86 4.31 2.35z"/><defs><path id="aa" d="m32.05 40.45-4.31-2.34c.68.37 1.38.51 2.08.41.81-.11 1.63-.55 2.43-1.3l4.31 2.34c-.8.75-1.61 1.18-2.43 1.3-.7.1-1.39-.04-2.08-.41z"/></defs><clipPath id="ab"><use overflow="visible" xlink:href="#aa"/></clipPath><g clip-path="url(#ab)"><path fill="#959799" d="m32.05 40.45-4.31-2.34c.05.03.1.05.15.08l4.31 2.34c-.05-.03-.1-.05-.15-.08"/><path fill="#9a9c9e" d="m32.2 40.53-4.31-2.34c.23.11.46.2.69.26l4.31 2.34c-.22-.06-.46-.15-.69-.26"/><path fill="#9fa0a3" d="m32.9 40.79-4.31-2.34c.41.11.82.13 1.23.07.34-.05.68-.15 1.03-.31l4.31 2.34c-.34.16-.68.27-1.03.31-.41.06-.82.03-1.23-.07"/><path fill="#9a9c9e" d="m35.16 40.54-4.31-2.34c.22-.11.45-.24.67-.39l4.31 2.34c-.22.16-.45.29-.67.39"/><path fill="#959799" d="m35.83 40.15-4.31-2.34c.21-.14.41-.31.62-.49l4.31 2.34c-.21.19-.41.35-.62.49"/><path fill="#919294" d="m36.45 39.66-4.31-2.34c.04-.03.07-.07.11-.1l4.31 2.34c-.04.04-.07.07-.11.1"/></g><defs><path id="ac" d="M33.75 26.89c.04-.07.07-.13.11-.2l4.31 2.34c-.03.07-.07.13-.11.2l-4.31-2.34z"/></defs><clipPath id="ad"><use overflow="visible" xlink:href="#ac"/></clipPath><g clip-path="url(#ad)"><path fill="#8d7a4a" d="m38.06 29.23-4.31-2.34c.01-.02.03-.05.04-.07l4.31 2.34c-.01.02-.03.05-.04.07"/><path fill="#887547" d="m38.1 29.16-4.31-2.34c.02-.04.05-.09.07-.13l4.31 2.34c-.03.04-.05.09-.07.13"/></g><defs><path id="ae" d="M33.86 26.69c.01.01.02.01.04.02l4.31 2.34c-.01-.01-.02-.01-.04-.02-1.3-.7-3.02-1.64-4.31-2.34z"/></defs><clipPath id="af"><use overflow="visible" xlink:href="#ae"/></clipPath><g clip-path="url(#af)"><path fill="#a18b54" d="m38.17 29.03-4.31-2.34s.01 0 .01.01l4.31 2.34-.01-.01"/><path fill="#9c8752" d="m38.18 29.04-4.31-2.34c.01 0 .02.01.02.01l4.31 2.34c-.01-.01-.01-.01-.02-.01"/></g><defs><path id="ag" d="m37.62 30.41-4.31-2.34c.08-.57.4-1.09.44-1.18l4.31 2.34c-.05.09-.37.61-.44 1.18z"/></defs><clipPath id="ah"><use overflow="visible" xlink:href="#ag"/></clipPath><g clip-path="url(#ah)"><path fill="#837145" d="m37.62 30.41-4.31-2.34c.03-.19.08-.38.14-.55l4.31 2.34c-.06.17-.12.36-.14.55"/><path fill="#887547" d="m37.76 29.86-4.31-2.34c.08-.21.16-.38.23-.5l4.31 2.34c-.07.12-.15.3-.23.5"/><path fill="#8d7a4a" d="m37.99 29.37-4.31-2.34c.03-.06.05-.1.07-.12l4.31 2.34c-.02.02-.04.06-.07.12"/><path fill="#887547" d="m38.05 29.24-4.3-2.34v-.01l4.31 2.34-.01.01"/></g><defs><path id="ai" d="M28.01 38.43c-.16-.09-.31-.18-.47-.3l4.31 2.34c.16.11.31.21.47.3-1.29-.7-3.02-1.63-4.31-2.34z"/></defs><clipPath id="aj"><use overflow="visible" xlink:href="#ai"/></clipPath><g clip-path="url(#aj)"><path fill="#7d7e80" d="m32.32 40.78-4.31-2.34c-.16-.09-.31-.18-.47-.3l4.31 2.34c.15.11.31.21.47.3"/></g><defs><path id="ak" d="m32.7 42.72-4.31-2.34c0-.05-.07-.9-.85-2.23l4.31 2.34c.78 1.32.85 2.18.85 2.23z"/></defs><clipPath id="al"><use overflow="visible" xlink:href="#ak"/></clipPath><g clip-path="url(#al)"><path fill="#777" d="m32.7 42.72-4.31-2.34c0-.05-.07-.9-.85-2.23l4.31 2.34c.78 1.32.85 2.18.85 2.23"/></g><defs><path id="am" d="M27.54 38.13a.913.913 0 0 0-.08-.13c1.44.78 2.87 1.56 4.31 2.34.03.04.05.09.08.13-1.29-.7-3.25-1.31-4.31-2.34z"/></defs><clipPath id="an"><use overflow="visible" xlink:href="#am"/></clipPath><g clip-path="url(#an)"><path fill="#7d7e80" d="m31.85 40.48-4.31-2.34a.913.913 0 0 0-.08-.13c-.02-.03-.04-.07-.06-.1l4.31 2.34c.02.04.04.07.06.1.03.04.05.08.08.13"/></g><defs><path id="ao" d="m32.05 40.45-4.31-2.34c-.11-.06-.23-.13-.34-.2l4.31 2.34c.12.07.23.14.34.2z"/></defs><clipPath id="ap"><use overflow="visible" xlink:href="#ao"/></clipPath><g clip-path="url(#ap)"><path fill="#786b44" d="m32.05 40.45-4.31-2.34c-.11-.06-.23-.13-.34-.2l4.31 2.34c.12.07.23.14.34.2"/></g><defs><path id="aq" d="m37.51 30.48-4.31-2.34c-.12-.06-.2-.54-.12-.89.01-.04.03-.12.05-.21.04-.23.08-.55-.05-.7l4.31 2.34c.12.15.09.47.05.7-.02.09-.04.17-.05.21-.09.35 0 .83.12.89z"/></defs><clipPath id="ar"><use overflow="visible" xlink:href="#aq"/></clipPath><g clip-path="url(#ar)"><path fill="#232f37" d="m37.51 30.48-4.31-2.34c-.12-.06-.2-.54-.12-.89.01-.04.03-.12.05-.21.04-.23.08-.55-.05-.7l4.31 2.34c.12.15.09.47.05.7-.02.09-.04.17-.05.21-.09.35 0 .83.12.89"/></g><path fill="#897648" d="m36.88 31.59-4.31-2.35.56-2.2 4.31 2.34z"/><defs><path id="as" d="m33.09 36.85-4.31-2.34c.31.17.63.18 1.05.14l4.31 2.34c-.43.03-.74.03-1.05-.14z"/></defs><clipPath id="at"><use overflow="visible" xlink:href="#as"/></clipPath><g clip-path="url(#at)"><path fill="#8f8051" d="m33.09 36.85-4.31-2.34c.02.01.03.02.05.02l4.31 2.34c-.02-.01-.03-.02-.05-.02"/><path fill="#948454" d="m33.14 36.87-4.31-2.34c.08.04.15.07.23.09l4.31 2.34a.917.917 0 0 1-.23-.09"/><path fill="#988856" d="m33.37 36.96-4.31-2.34c.23.06.47.05.77.03l4.31 2.34c-.3.02-.54.03-.77-.03"/></g><defs><path id="au" d="M27.46 38c-.15-.25-.33-.51-.53-.8 1.44.78 2.87 1.56 4.31 2.34.21.28.38.55.53.8-1.29-.7-3.24-1.32-4.31-2.34z"/></defs><clipPath id="av"><use overflow="visible" xlink:href="#au"/></clipPath><g clip-path="url(#av)"><path fill="#786b44" d="M31.77 40.35 27.46 38c-.15-.25-.33-.51-.53-.8-.67-.89-.38-2.12-.12-2.82l4.31 2.34c-.26.7-.55 1.92.12 2.82.2.29.38.56.53.81"/></g><defs><path id="aw" d="m33.09 36.85-4.31-2.34c-.1-.05-.2-.13-.3-.22l4.31 2.34c.1.09.2.16.3.22z"/></defs><clipPath id="ax"><use overflow="visible" xlink:href="#aw"/></clipPath><g clip-path="url(#ax)"><path fill="#837145" d="m33.09 36.85-4.31-2.34c-.1-.05-.2-.12-.3-.22l4.31 2.34c.1.09.2.16.3.22"/></g><defs><path id="ay" d="m33.47 23.26 4.31 2.34c.76.41 1.09 2 .39 3.43l-4.31-2.34c.7-1.43.37-3.01-.39-3.43z"/></defs><clipPath id="az"><use overflow="visible" xlink:href="#ay"/></clipPath><g clip-path="url(#az)"><path fill="#7c7c7c" d="m38.17 29.03-4.31-2.34c.06-.12.11-.25.16-.37l4.31 2.34c-.05.12-.1.25-.16.37"/><path fill="#777" d="m38.32 28.66-4.31-2.34c.48-1.32.15-2.68-.55-3.05l4.31 2.34c.7.37 1.04 1.73.55 3.05"/></g><defs><path id="aA" d="m37.39 28.68-4.31-2.34c-.26-.4-.37-1.07-.42-1.84l4.31 2.34c.06.77.17 1.44.42 1.84z"/></defs><clipPath id="aB"><use overflow="visible" xlink:href="#aA"/></clipPath><g clip-path="url(#aB)"><path fill="#232f37" d="m37.39 28.68-4.31-2.34c-.26-.4-.37-1.07-.42-1.84l4.31 2.34c.06.77.17 1.44.42 1.84"/></g><defs><path id="aC" d="m33.47 23.26 4.31 2.34a.817.817 0 0 0-.44-.1l-4.31-2.34c.16-.01.3.03.44.1z"/></defs><clipPath id="aD"><use overflow="visible" xlink:href="#aC"/></clipPath><g clip-path="url(#aD)"><path fill="#2d3c45" d="m37.34 25.5-4.31-2.34c.08 0 .16 0 .24.02l4.31 2.34c-.08-.01-.16-.02-.24-.02"/><path fill="#2c3a43" d="m37.58 25.53-4.31-2.34c.06.01.11.03.17.06l4.31 2.34a.697.697 0 0 0-.17-.06"/><path fill="#2a3841" d="m37.74 25.59-4.31-2.34c.01.01.02.01.03.02l4.31 2.34c-.01-.01-.02-.02-.03-.02"/></g><defs><path id="aE" d="m32.31 24.18 4.31 2.34c.12.06.24.17.36.32l-4.31-2.34c-.12-.15-.24-.26-.36-.32z"/></defs><clipPath id="aF"><use overflow="visible" xlink:href="#aE"/></clipPath><g clip-path="url(#aF)"><path fill="#232f37" d="m36.97 26.85-4.31-2.34c-.12-.15-.24-.26-.36-.32l4.31 2.34c.13.06.24.16.36.32"/></g><defs><path id="aG" d="M26.93 37.21c-.96-1.29.07-3.26.12-3.37l4.31 2.34c-.05.1-1.08 2.08-.12 3.37-.72-.39-1.44-.78-2.15-1.17-.08-.05-.2-.11-.28-.15-.08-.05-.2-.11-.28-.15-.17-.09-.39-.21-.55-.3-.16-.09-.37-.2-.53-.29-.08-.04-.18-.1-.26-.14-.09-.05-.2-.09-.26-.14z"/></defs><clipPath id="aH"><use overflow="visible" xlink:href="#aG"/></clipPath><g clip-path="url(#aH)"><path fill="#786b44" d="M31.77 40.35 27.46 38c-.15-.25-.33-.51-.53-.8-.67-.89-.38-2.12-.12-2.82l4.31 2.34c-.26.7-.55 1.92.12 2.82.2.29.38.56.53.81"/><path fill="#7d6f47" d="m31.12 36.73-4.31-2.34c.11-.31.22-.52.24-.55l4.31 2.34c-.02.04-.13.24-.24.55"/></g><defs><path id="aI" d="M31.95 24.11c.12-.02.24.01.36.07l4.31 2.34a.585.585 0 0 0-.36-.07c-1.29-.7-3.01-1.64-4.31-2.34z"/></defs><clipPath id="aJ"><use overflow="visible" xlink:href="#aI"/></clipPath><g clip-path="url(#aJ)"><path fill="#a68f57" d="m36.26 26.45-4.31-2.34c.07-.01.14-.01.21.01l4.31 2.34a.497.497 0 0 0-.21-.01"/><path fill="#a18b54" d="m36.47 26.46-4.31-2.34c.04.01.08.03.12.04l4.31 2.34c-.04-.01-.08-.03-.12-.04"/><path fill="#9c8752" d="m36.59 26.51-4.31-2.34c.01 0 .02.01.03.01l4.31 2.34c-.01 0-.02-.01-.03-.01"/></g><defs><path id="aK" d="m32.79 36.63-4.31-2.34c-.67-.53-1.03-.8-1.4-1.41-.01-.01-.01-.02-.02-.03-.02-.04-.05-.08-.07-.12-.3-.51-.39-.85-.44-1.25l4.31 2.34c.05.4.14.74.44 1.25.02.04.05.08.07.12.01.01.01.02.02.03.37.61.72.88 1.4 1.41z"/></defs><clipPath id="aL"><use overflow="visible" xlink:href="#aK"/></clipPath><g clip-path="url(#aL)"><path fill="#837145" d="m32.79 36.63-4.31-2.34c-.67-.53-1.03-.8-1.4-1.41-.01-.01-.01-.02-.02-.03-.02-.04-.05-.08-.07-.12-.3-.51-.39-.85-.44-1.25l4.31 2.34c.05.4.14.74.44 1.25.02.04.05.08.07.12.01.01.01.02.02.03.37.61.72.88 1.4 1.41"/></g><path fill="#766943" d="m31.36 36.19-4.31-2.35.02-.99 4.3 2.34z"/><path fill="#cab472" d="M31.37 35.19c.01.01.01.02.02.03.37.61.72.88 1.4 1.41.43.38.79.4 1.35.36.55-.11.91-.23 1.35-.74.67-.72 1.03-1.09 1.41-1.81l.02.96c.05.09 1.08 1.78.11 3.33a15 15 0 0 0-.62 1.1c.05-.09.09-.18.14-.27-.8.75-1.61 1.18-2.43 1.3-.81.11-1.62-.09-2.42-.62.02.04.04.07.06.1-.15-.25-.33-.51-.53-.8-.96-1.29.07-3.26.12-3.37l.02-.98z"/><defs><path id="aM" d="M31.51 24.35c.15-.14.3-.22.44-.24l4.31 2.34c-.15.02-.3.1-.44.24-1.3-.7-3.02-1.64-4.31-2.34z"/></defs><clipPath id="aN"><use overflow="visible" xlink:href="#aM"/></clipPath><g clip-path="url(#aN)"><path fill="#97824f" d="m35.82 26.69-4.31-2.34.01-.01 4.31 2.34-.01.01"/><path fill="#9c8752" d="m35.83 26.68-4.31-2.34c.04-.04.08-.07.12-.1l4.31 2.34c-.04.03-.08.06-.12.1"/><path fill="#a18b54" d="m35.95 26.58-4.31-2.34c.04-.03.08-.05.13-.07l4.31 2.34c-.04.02-.09.04-.13.07"/><path fill="#a68f57" d="m36.08 26.51-4.31-2.34c.06-.03.12-.05.18-.06l4.31 2.34c-.06.01-.12.03-.18.06"/></g><defs><path id="aO" d="m24.31 37.15 4.31 2.34c.78.43 1.7 1.11 2.44 2.21.23.35.38.76.44 1.2.09.66.21 1.76.21 3.01 0 1.18-.11 2.48-.46 3.68l-4.31-2.34c.34-1.2.45-2.51.46-3.68 0-1.25-.12-2.35-.21-3.01-.07-.44-.21-.85-.44-1.2a7.125 7.125 0 0 0-2.44-2.21z"/></defs><clipPath id="aP"><use overflow="visible" xlink:href="#aO"/></clipPath><g clip-path="url(#aP)"><path fill="#364146" d="m31.25 49.6-4.31-2.34c.34-1.2.45-2.51.46-3.68 0-1.25-.12-2.35-.21-3.01-.07-.44-.21-.85-.44-1.2a6.938 6.938 0 0 0-2.44-2.21l4.31 2.34c.78.43 1.7 1.11 2.44 2.21.23.35.38.76.44 1.2.09.66.21 1.76.21 3.01-.01 1.17-.12 2.48-.46 3.68"/></g><defs><path id="aQ" d="M33.03 23.16c-.11-.78-.49-1.29-1.04-1.59l4.31 2.34c.54.3.93.81 1.04 1.59l-4.31-2.34z"/></defs><clipPath id="aR"><use overflow="visible" xlink:href="#aQ"/></clipPath><g clip-path="url(#aR)"><path fill="#777" d="m37.34 25.5-4.31-2.34c-.11-.78-.49-1.29-1.04-1.59l4.31 2.34c.55.3.93.81 1.04 1.59"/></g><path fill="#95814e" d="m30.86 33.36-4.3-2.34.55-1.01 4.31 2.34z"/><defs><path id="aS" d="M26.53 31.04c.01-.01.02-.01.03-.02l4.31 2.34c-.01.01-.02.01-.03.02l-4.31-2.34z"/></defs><clipPath id="aT"><use overflow="visible" xlink:href="#aS"/></clipPath><g clip-path="url(#aT)"><path fill="#a18b54" d="m30.84 33.38-4.31-2.34c.01 0 .01-.01.02-.01l4.31 2.34c-.01 0-.01.01-.02.01"/><path fill="#9c8752" d="m30.86 33.37-4.31-2.35h.01l4.3 2.34v.01"/></g><path fill="#7f6e43" d="m30.86 33.82-4.3-2.34-.03-.44 4.31 2.34z"/><defs><path id="aU" d="m30.42 33.4-4.31-2.34c.08.04.16.06.24.05a.41.41 0 0 0 .17-.07l4.31 2.34a.41.41 0 0 1-.17.07.418.418 0 0 1-.24-.05z"/></defs><clipPath id="aV"><use overflow="visible" xlink:href="#aU"/></clipPath><g clip-path="url(#aV)"><path fill="#8e8e8e" d="m30.42 33.4-4.31-2.34c.01 0 .01.01.02.01l4.31 2.34c0-.01-.01-.01-.02-.01"/><path fill="#939393" d="m30.44 33.41-4.31-2.34c.03.01.06.02.08.03l4.31 2.34c-.02-.01-.05-.02-.08-.03"/><path fill="#979797" d="m30.53 33.44-4.31-2.34c.05.01.09.01.14.01l.11-.03 4.31 2.34c-.04.02-.07.03-.11.03-.05 0-.1 0-.14-.01"/><path fill="#939393" d="m30.78 33.41-4.31-2.34.06-.03 4.31 2.34-.06.03"/></g><defs><path id="aW" d="m26.91 39.49-4.31-2.34c.32-.13.6-.26.85-.38l4.31 2.34c-.25.12-.53.24-.85.38z"/></defs><clipPath id="aX"><use overflow="visible" xlink:href="#aW"/></clipPath><g clip-path="url(#aX)"><path fill="#2d3c45" d="m26.91 39.49-4.31-2.34c.32-.13.6-.26.85-.38l4.31 2.34c-.25.12-.53.24-.85.38"/></g><defs><path id="aY" d="M22.6 36.52c1.34-2.02 3.92-3.52 4.39-3.79l4.31 2.34c-.47.27-3.05 1.77-4.39 3.79-1.29-.7-3.01-1.64-4.31-2.34z"/></defs><clipPath id="aZ"><use overflow="visible" xlink:href="#aY"/></clipPath><g clip-path="url(#aZ)"><path fill="#3a464c" d="m26.91 38.86-4.31-2.34c.03-.05.07-.1.1-.15l4.31 2.34c-.03.05-.07.1-.1.15"/><path fill="#3c494e" d="m27.02 38.71-4.31-2.34c.17-.24.36-.48.56-.71L27.58 38c-.2.23-.39.46-.56.71"/><path fill="#3e4b51" d="m27.58 38-4.31-2.34c.28-.32.59-.62.9-.9l4.31 2.34c-.32.28-.62.58-.9.9"/><path fill="#404e54" d="m28.48 37.1-4.31-2.34c.54-.49 1.09-.9 1.57-1.23l4.31 2.34c-.48.32-1.04.74-1.57 1.23"/><path fill="#435056" d="m30.05 35.86-4.31-2.34c.6-.41 1.08-.69 1.25-.79l4.31 2.34c-.17.1-.65.38-1.25.79"/></g><path fill="#7e6d42" d="m31.42 32.35-4.31-2.34-.52-1.93 4.3 2.35z"/><path fill="#b1995d" d="m30.72 31.38-4.3-2.34.18-.03 4.3 2.35z"/><defs><path id="ba" d="m32.47 27.54-4.31-2.34c.59.32 1.03.48 1.48.41.54-.08 1.07-.47 1.86-1.27l4.31 2.34c-.79.8-1.33 1.19-1.86 1.27-.44.07-.89-.09-1.48-.41z"/></defs><clipPath id="bb"><use overflow="visible" xlink:href="#ba"/></clipPath><g clip-path="url(#bb)"><path fill="#9c8752" d="m32.47 27.54-4.31-2.34c.09.05.17.09.25.13l4.31 2.34c-.08-.04-.16-.08-.25-.13"/><path fill="#a18b54" d="m32.73 27.67-4.31-2.34c.22.11.42.19.61.24l4.31 2.34c-.19-.05-.39-.13-.61-.24"/><path fill="#a68f57" d="m33.34 27.91-4.31-2.34c.21.06.41.07.61.04.15-.02.3-.07.46-.14l4.31 2.34c-.16.07-.31.12-.46.14-.2.03-.4.02-.61-.04"/><path fill="#a18b54" d="m34.42 27.81-4.31-2.34c.12-.06.25-.13.38-.22l4.31 2.34c-.14.09-.26.16-.38.22"/><path fill="#9c8752" d="m34.79 27.59-4.31-2.34c.17-.11.34-.26.53-.43l4.31 2.34c-.19.18-.36.32-.53.43"/><path fill="#97824f" d="m35.32 27.16-4.31-2.34c.15-.14.32-.3.49-.47l4.31 2.34c-.17.18-.33.34-.49.47"/></g><defs><path id="bc" d="M26.6 29.01c-.04-.3-.04-.61-.01-.93l4.31 2.34c-.03.32-.03.63.01.93-1.3-.7-3.02-1.63-4.31-2.34z"/></defs><clipPath id="bd"><use overflow="visible" xlink:href="#bc"/></clipPath><g clip-path="url(#bd)"><path fill="#837145" d="m30.9 31.36-4.31-2.34c-.04-.3-.04-.61-.01-.93l4.31 2.34c-.02.31-.02.62.01.93"/></g><defs><path id="be" d="m30.42 33.4-4.31-2.34c-.29-.16-.54-.65-.66-1.21l4.31 2.34c.13.56.37 1.05.66 1.21z"/></defs><clipPath id="bf"><use overflow="visible" xlink:href="#be"/></clipPath><g clip-path="url(#bf)"><path fill="#837145" d="m30.42 33.4-4.31-2.34c-.29-.16-.54-.65-.66-1.21l4.31 2.34c.13.56.37 1.05.66 1.21"/></g><defs><path id="bg" d="M26.59 28.08c.02-.25.06-.51.12-.77l4.31 2.34c-.06.26-.1.51-.12.77-1.3-.7-3.02-1.63-4.31-2.34z"/></defs><clipPath id="bh"><use overflow="visible" xlink:href="#bg"/></clipPath><g clip-path="url(#bh)"><path fill="#837145" d="m30.89 30.43-4.31-2.34c.02-.25.06-.51.12-.77l4.31 2.34c-.05.26-.09.51-.12.77"/></g><defs><path id="bi" d="m23.45 50.7-4.31-2.34c.24-3.11.2-7.06.69-8.42l4.31 2.34c-.49 1.36-.45 5.31-.69 8.42z"/></defs><clipPath id="bj"><use overflow="visible" xlink:href="#bi"/></clipPath><g clip-path="url(#bj)"><path fill="#232f37" d="m23.45 50.7-4.31-2.34c.24-3.11.2-7.06.69-8.42l4.31 2.34c-.49 1.36-.45 5.31-.69 8.42"/></g><defs><path id="bk" d="m32 21.57 4.31 2.34c-.58-.31-1.33-.38-2.14-.27l-4.31-2.34c.8-.11 1.56-.04 2.14.27z"/></defs><clipPath id="bl"><use overflow="visible" xlink:href="#bk"/></clipPath><g clip-path="url(#bl)"><path fill="#2d3c45" d="m34.16 23.64-4.31-2.34c.57-.08 1.11-.07 1.59.05l4.31 2.34c-.48-.12-1.02-.13-1.59-.05"/><path fill="#2c3a43" d="m35.74 23.7-4.31-2.34c.17.04.33.1.48.17l4.31 2.34c-.15-.07-.31-.13-.48-.17"/><path fill="#2a3841" d="m36.22 23.87-4.31-2.34c.03.01.05.03.08.04l4.31 2.34c-.02-.01-.05-.03-.08-.04"/></g><defs><path id="bm" d="m32.47 27.54-4.31-2.34c-.11-.06-.22-.12-.34-.2-.01-.01-.02-.01-.04-.02l4.31 2.34c.01.01.02.01.04.02.12.08.24.14.34.2z"/></defs><clipPath id="bn"><use overflow="visible" xlink:href="#bm"/></clipPath><g clip-path="url(#bn)"><path fill="#232f37" d="m32.47 27.54-4.31-2.34c-.11-.06-.22-.12-.34-.2-.01-.01-.02-.01-.04-.02l4.31 2.34c.01.01.02.01.04.02.12.08.24.14.34.2"/></g><path fill="#3b4f5c" d="M27.76 39.11a6.91 6.91 0 0 1 3.29 2.6c.23.35.38.76.44 1.2.09.66.21 1.76.21 3.01 0 1.18-.11 2.48-.46 3.68l-7.8 1.1c.24-3.11.2-7.06.69-8.42.45-1.42 1.51-2.21 2.77-2.79.33-.14.61-.26.86-.38z"/><defs><path id="bo" d="m24.14 42.28-4.31-2.34c.45-1.42 1.51-2.21 2.77-2.79l4.31 2.34c-1.26.58-2.33 1.37-2.77 2.79z"/></defs><clipPath id="bp"><use overflow="visible" xlink:href="#bo"/></clipPath><g clip-path="url(#bp)"><path fill="#232f37" d="m24.14 42.28-4.31-2.34.06-.18 4.31 2.34c-.02.06-.05.12-.06.18"/><path fill="#253139" d="m24.2 42.1-4.31-2.34c.07-.18.14-.35.23-.51l4.31 2.34c-.09.16-.17.33-.23.51"/><path fill="#26333b" d="m24.43 41.59-4.31-2.34c.07-.14.15-.26.24-.39l4.31 2.34c-.09.12-.17.25-.24.39"/><path fill="#27353d" d="m24.66 41.2-4.31-2.34c.08-.12.18-.24.27-.34l4.31 2.34c-.09.11-.18.22-.27.34"/><path fill="#29373f" d="m24.94 40.86-4.31-2.34c.11-.12.22-.24.34-.35l4.31 2.34c-.12.11-.24.22-.34.35"/><path fill="#2a3841" d="m25.28 40.51-4.31-2.34c.16-.14.32-.27.5-.39l4.31 2.34c-.18.12-.34.25-.5.39"/><path fill="#2c3a43" d="m25.78 40.12-4.31-2.34c.32-.22.66-.41 1.02-.58l4.31 2.34c-.36.17-.7.36-1.02.58"/><path fill="#2d3c45" d="m26.8 39.54-4.31-2.34c.03-.02.07-.03.11-.05l4.31 2.34c-.04.01-.07.03-.11.05"/></g><defs><path id="bq" d="m30.72 31.38-4.31-2.34c-.14-.46-.37-.83-.69-1.1l4.31 2.34c.32.27.55.64.69 1.1z"/></defs><clipPath id="br"><use overflow="visible" xlink:href="#bq"/></clipPath><g clip-path="url(#br)"><path fill="#232f37" d="m30.72 31.38-4.31-2.34c-.14-.46-.37-.83-.69-1.1l4.31 2.34c.32.27.55.64.69 1.1"/></g><defs><path id="bs" d="m27.79 24.98 4.31 2.34c-.25-.14-.46-.19-.63-.17-.53.07-.68.91-.45 2.5l-4.31-2.34c-.22-1.59-.08-2.43.45-2.5.17-.02.38.04.63.17z"/></defs><clipPath id="bt"><use overflow="visible" xlink:href="#bs"/></clipPath><g clip-path="url(#bt)"><path fill="#837145" d="m31.01 29.66-4.31-2.34c-.14-.98-.13-1.68.01-2.08l4.31 2.34c-.14.4-.14 1.1-.01 2.08"/><path fill="#887547" d="m31.03 27.58-4.31-2.34c.02-.05.04-.09.06-.13l4.31 2.34a.31.31 0 0 0-.06.13"/><path fill="#8d7a4a" d="m31.08 27.45-4.31-2.34c.01-.03.03-.05.05-.08l4.31 2.34c-.02.03-.03.05-.05.08"/><path fill="#927e4d" d="m31.13 27.37-4.31-2.34c.01-.02.03-.04.04-.05l4.31 2.34c-.01.02-.03.03-.04.05"/><path fill="#97824f" d="m31.17 27.32-4.31-2.34c.01-.02.03-.03.04-.04l4.31 2.34-.04.04"/><path fill="#9c8752" d="m31.22 27.27-4.31-2.34c.02-.01.03-.03.05-.04l4.31 2.34c-.02.02-.04.03-.05.04"/><path fill="#a18b54" d="m31.27 27.24-4.31-2.34c.02-.01.04-.03.07-.04l4.31 2.34c-.03.01-.05.02-.07.04"/><path fill="#a68f57" d="m31.33 27.2-4.31-2.34c.04-.02.09-.03.13-.04.08-.01.18 0 .28.02l4.31 2.34c-.1-.03-.2-.03-.28-.02-.04.01-.09.02-.13.04"/><path fill="#a18b54" d="m31.74 27.18-4.31-2.34c.08.02.17.06.27.1l4.31 2.34c-.09-.04-.18-.08-.27-.1"/><path fill="#9c8752" d="m32.01 27.29-4.31-2.34c.03.01.05.03.08.04l4.31 2.34c-.02-.02-.05-.03-.08-.04"/></g><defs><path id="bu" d="m30.04 30.29-4.31-2.34c0-.01-.01-.02-.01-.03-.61-2.23-.21-4.55 1.32-5.58l4.31 2.34c-1.53 1.03-1.93 3.35-1.32 5.58 0 0 0 .02.01.03z"/></defs><clipPath id="bv"><use overflow="visible" xlink:href="#bu"/></clipPath><g clip-path="url(#bv)"><path fill="#232f37" d="m30.04 30.29-4.31-2.34c0-.01-.01-.02-.01-.03-.37-1.36-.37-2.76.04-3.87l4.31 2.34c-.41 1.12-.41 2.51-.04 3.87 0 0 0 .02.01.03"/><path fill="#253139" d="m30.07 26.38-4.31-2.34c.07-.19.15-.36.24-.53l4.31 2.34c-.1.17-.17.34-.24.53"/><path fill="#26333b" d="M30.31 25.85 26 23.5c.07-.13.14-.25.23-.37l4.31 2.34c-.09.13-.17.25-.23.38"/><path fill="#27353d" d="m30.53 25.48-4.31-2.34c.07-.1.15-.2.23-.29l4.31 2.34c-.08.09-.16.19-.23.29"/><path fill="#29373f" d="m30.76 25.19-4.31-2.34c.08-.09.16-.18.25-.26l4.31 2.34c-.09.08-.17.17-.25.26"/><path fill="#2a3841" d="m31.01 24.93-4.31-2.34c.1-.09.2-.17.3-.24l4.31 2.34-.3.24"/><path fill="#2c3a43" d="m31.32 24.69-4.31-2.34c.01-.01.02-.01.03-.02l4.31 2.34c-.01.01-.02.02-.03.02"/></g><defs><path id="bw" d="M25.45 29.84c-.16-.82-.11-1.55.27-1.93l4.31 2.34c-.38.39-.43 1.11-.27 1.93-1.29-.7-3.01-1.63-4.31-2.34z"/></defs><clipPath id="bx"><use overflow="visible" xlink:href="#bw"/></clipPath><g clip-path="url(#bx)"><path fill="#837145" d="m29.76 32.19-4.31-2.34c-.12-.59-.13-1.13.02-1.53l4.31 2.34c-.14.4-.14.94-.02 1.53"/><path fill="#887547" d="m29.78 30.65-4.31-2.34c.02-.06.05-.11.07-.17l4.31 2.34c-.02.06-.05.12-.07.17"/><path fill="#8d7a4a" d="m29.86 30.49-4.31-2.34c.02-.04.04-.08.07-.11l4.31 2.34c-.03.03-.05.07-.07.11"/><path fill="#927e4d" d="m29.92 30.38-4.31-2.34a.55.55 0 0 1 .07-.09l4.31 2.34c-.02.03-.04.06-.07.09"/><path fill="#97824f" d="m29.99 30.29-4.31-2.34c.01-.01.02-.03.03-.04l4.31 2.34c0 .02-.02.03-.03.04"/></g><defs><path id="by" d="m31.35 24.67-4.31-2.34c.88-.53 1.88-.9 2.81-1.03l4.31 2.34c-.93.13-1.93.51-2.81 1.03z"/></defs><clipPath id="bz"><use overflow="visible" xlink:href="#by"/></clipPath><g clip-path="url(#bz)"><path fill="#2c3a43" d="m31.35 24.67-4.31-2.34c.23-.14.47-.26.71-.38l4.31 2.34c-.24.12-.48.24-.71.38"/><path fill="#2d3c45" d="m32.06 24.29-4.31-2.34a7.7 7.7 0 0 1 2.1-.65l4.31 2.34a7.7 7.7 0 0 0-2.1.65"/></g><path fill="#636161" d="m53.39 29.25-4.31-2.34-19.21-15.46 4.31 2.35z"/><path fill="#949494" d="m14.9 34.66-4.3-2.34 19.27-20.87 4.31 2.35z"/><path fill="#656363" d="m14.9 34.66-4.3-2.34v-3.05l4.31 2.34z"/><path fill="#c8c8c8" d="m34.18 13.8 19.21 15.45-.04 22.73-38.48 5.41.04-22.73L34.18 13.8zM23.45 50.7l21.34-3c-.24-3.05-.18-7.01-.66-8.23-.45-1.29-1.5-1.79-2.77-2.01-.32-.05-.59-.1-.85-.14.52-.33.84-.48.86-.49-1.34-1.64-3.92-2.42-4.38-2.56.29-.59.39-.96.43-1.37l.03-.46c.06.03.12.03.18.03.39-.05.75-.76.91-1.51.18-.94.11-1.7-.37-1.92.82-1.68.22-3.57-.83-3.53-.23-1.6-1.6-2.08-3.18-1.86-.93.13-1.93.5-2.81 1.03-1.53 1.03-1.93 3.35-1.32 5.58-.38.39-.43 1.11-.27 1.93.16.71.52 1.31.91 1.26a.41.41 0 0 0 .17-.07l.02.44c.05.4.14.74.44 1.25-.47.27-3.05 1.77-4.39 3.79.02 0 .34.06.85.25-.25.12-.53.25-.85.38-1.26.58-2.33 1.37-2.77 2.79-.49 1.36-.45 5.31-.69 8.42"/><path fill="#c8c8c8" d="M36.41 39.84c-.78 1.56-.86 2.43-.86 2.48-.03.16-.58 3.25.09 6.67l.74-.1-4.53.64.74-.1c.67-3.61.13-6.54.1-6.69 0-.05-.07-.9-.85-2.23.75.54 1.52.76 2.28.65.77-.13 1.54-.57 2.29-1.32z"/><path fill="#d2d4d8" d="M36.56 39.56c-.05.1-.1.19-.14.27-.75.76-1.52 1.19-2.28 1.3-.76.11-1.53-.11-2.28-.66a.913.913 0 0 0-.08-.13c-.02-.03-.04-.07-.06-.1.79.53 1.6.73 2.42.62.8-.12 1.62-.55 2.42-1.3z"/><path fill="#dbbd73" d="M38.17 29.03c.48.22.55.98.37 1.92-.16.76-.52 1.46-.91 1.51-.06.01-.12 0-.18-.03h-.01l-.55-.85.56-2.2c-.02.09-.04.17-.05.21-.1.38.02.91.15.89.03 0 .05-.03.08-.07.08-.57.4-1.09.44-1.18.03-.06.06-.13.1-.2z"/><path fill="#5b6d76" d="M31.3 35.07c.02.04.05.08.07.12l-.01 1c-.05.1-1.08 2.08-.12 3.37.21.28.38.55.53.8.03.04.05.09.08.13.78 1.34.85 2.2.85 2.24.03.15.57 3.09-.1 6.69l-.74.1-.61.09c.34-1.2.45-2.51.46-3.68 0-1.25-.12-2.35-.21-3.01-.07-.44-.21-.85-.44-1.2a6.91 6.91 0 0 0-3.29-2.6c-.51-.19-.84-.24-.85-.25 1.33-2.03 3.91-3.53 4.38-3.8z"/><path fill="#dbbd73" d="M30.03 30.25c0 .01.01.02.01.03.32.27.54.63.69 1.1l.18-.03c-.04-.3-.04-.61-.01-.93l.52 1.93-.55 1.01c-.01.01-.02.01-.03.02a.41.41 0 0 1-.17.07c-.39.05-.75-.55-.91-1.26-.16-.83-.11-1.55.27-1.94z"/><path fill="#dbbd73" d="M36.26 26.45c.24-.03.48.09.71.39.05.77.16 1.43.42 1.84.12.15.09.47.05.7l-.56 2.2.55.85-.02.46c-.04.42-.14.78-.43 1.37-.02.05-.05.1-.08.15-.39.73-.75 1.1-1.42 1.83-.44.5-.8.63-1.35.74-.56.05-.92.02-1.35-.36-.67-.53-1.03-.8-1.4-1.41-.01-.01-.01-.02-.02-.03-.02-.04-.05-.08-.07-.12-.3-.51-.39-.85-.44-1.25l-.02-.44c.01-.01.02-.01.03-.02l.55-1.01-.52-1.93c.02-.25.06-.51.12-.77-.22-1.59-.08-2.43.45-2.5.18-.03.4.04.66.19.77.45 1.3.68 1.82.61.54-.08 1.07-.47 1.86-1.27.16-.12.31-.2.46-.22z"/><path fill="#3b4f5c" d="M34.16 23.64c1.58-.22 2.95.25 3.18 1.86 1.05-.05 1.65 1.85.83 3.53-.03.07-.07.13-.11.2-.05.09-.36.61-.44 1.18-.03.05-.05.07-.08.07-.13.02-.25-.51-.15-.89.01-.04.03-.12.05-.21.04-.23.08-.55-.05-.7-.26-.4-.37-1.07-.42-1.84-.24-.3-.48-.43-.71-.39-.15.02-.3.1-.44.24-.79.8-1.33 1.19-1.86 1.27-.53.07-1.05-.16-1.82-.61-.27-.15-.49-.21-.66-.19-.53.07-.68.91-.45 2.5-.06.26-.1.51-.12.77-.03.32-.03.63.01.93l-.18.03c-.14-.46-.37-.83-.69-1.1 0-.01-.01-.02-.01-.03-.61-2.23-.21-4.55 1.32-5.58.87-.53 1.87-.91 2.8-1.04z"/><path fill="#702333" d="m53.39 26.2-4.3-2.34L30.33 8.42l4.31 2.34zM34.64 10.76l-4.31-2.34-.45-.37 4.31 2.35z"/><path fill="#691d2f" d="m58.56 26.03-4.31-2.34L29.89 3.23l4.31 2.34z"/><path fill="#757575" d="m14.86 57.38-4.31-2.34.05-22.72 4.3 2.34z"/><path fill="#ada8a8" d="m34.13 10.46.51.3L53.39 26.2v3.05L34.18 13.8 14.9 34.66l.01-3.05z"/><path fill="#7f7c7c" d="m14.91 31.61-4.31-2.34L29.83 8.12l4.3 2.34z"/><path fill="#8f2d42" d="m9.74 32.9-4.31-2.34L29.89 3.23l4.31 2.34z"/><path fill="#86253c" d="m20.89 17.21-4.31-2.34L29.9 0l4.3 2.34z"/><path fill="#86253c" d="m14.92 23.88-4.3-2.34 5.96-6.67 4.31 2.34z"/><path fill="#702333" d="m11.9 34.93-4.31-2.35-2.16-2.02 4.31 2.34z"/><path fill="#c33d59" d="m34.2 5.57 24.36 20.46 1.58-1.91-3.75 4.55-3-2.47-18.75-15.44-.45-.36-19.28 21.21-3.01 3.32-2.16-2.03z"/><path fill="#86253c" d="m8.17 31.42-4.31-2.34 6.76-7.54 4.3 2.34z"/><path fill="#691d2f" d="m9.74 32.9-4.31-2.34-1.57-1.48 4.31 2.34z"/><path fill="#b63251" d="m34.2 2.34 25.94 21.78-1.58 1.91L34.2 5.57 9.74 32.9l-1.57-1.48 6.75-7.54 5.97-6.67z"/><path fill="#c33d59" d="m14.95 10.52-.01 2.26 5.96-.84-.01 5.27-5.97 6.67z"/><path fill="#9e3148" d="m14.94 12.78-4.3-2.35 5.95-.83 4.31 2.34z"/><path fill="#722434" d="m14.92 23.88-4.3-2.34.02-13.36 4.31 2.34z"/><path fill="#b63251" d="M20.9 9.68v2.26l-5.96.84.01-2.26z"/><path fill="#942842" d="m14.95 10.52-4.31-2.34 5.96-.84 4.3 2.34z"/><path fill="#6b1d30" d="m14.94 12.78-4.3-2.35V8.18l4.31 2.34z"/><path fill="#9e3148" d="M12.87 6.62 8.56 4.27l10.13-1.42 4.3 2.34z"/><path fill="#722434" d="M12.86 10.81 8.55 8.47l.01-4.2 4.31 2.35z"/><path fill="#c33d59" d="M22.99 5.19v4.2l-2.09.29-5.95.84-2.09.29.01-4.19z"/></svg>